<svg width="70" height="100" viewBox="0 0 70 100" fill="none" xmlns="http://www.w3.org/2000/svg">
<g clip-path="url(#clip0_1_767)">
<path d="M17.3753 100C26.9632 100 34.7447 92.5335 34.7447 83.3335V66.6668H17.3753C7.78735 66.6668 0.00585938 74.1335 0.00585938 83.3335C0.00585938 92.5335 7.78735 100 17.3753 100Z" fill="#0ACF83"/>
<path d="M0.00585938 49.9999C0.00585938 40.7999 7.78735 33.3332 17.3753 33.3332H34.7447V66.6665H17.3753C7.78735 66.6665 0.00585938 59.1999 0.00585938 49.9999Z" fill="#A259FF"/>
<path d="M0.00390625 16.6667C0.00390625 7.46667 7.7854 7.62939e-06 17.3733 7.62939e-06H34.7427V33.3333H17.3733C7.7854 33.3333 0.00390625 25.8667 0.00390625 16.6667Z" fill="#F24E1E"/>
<path d="M34.7456 7.62939e-06H52.115C61.7029 7.62939e-06 69.4844 7.46667 69.4844 16.6667C69.4844 25.8667 61.7029 33.3333 52.115 33.3333H34.7456V7.62939e-06Z" fill="#FF7262"/>
<path d="M69.4844 49.9999C69.4844 59.1999 61.7029 66.6665 52.115 66.6665C42.5271 66.6665 34.7456 59.1999 34.7456 49.9999C34.7456 40.7999 42.5271 33.3332 52.115 33.3332C61.7029 33.3332 69.4844 40.7999 69.4844 49.9999Z" fill="#1ABCFE"/>
</g>
<defs>
<clipPath id="clip0_1_767">
<rect width="69.4915" height="100" fill="white"/>
</clipPath>
</defs>
</svg>
