<svg width="100" height="100" viewBox="0 0 100 100" fill="none" xmlns="http://www.w3.org/2000/svg">
<path d="M0 50V100H50H100V50V0H50H0V50Z" fill="#007ACC"/>
<path d="M22.113 50.3318L22.0812 54.427L28.5892 54.427H35.0971V72.9191V91.4111H39.7003H44.3035V72.9191L44.3035 54.427H50.8114H57.3193V50.4111C57.3193 48.1889 57.2717 46.3318 57.2082 46.2841C57.1606 46.2207 49.24 46.1889 39.6368 46.2048L22.1606 46.2524L22.113 50.3318Z" fill="white"/>
<path d="M80.6907 46.1362C83.2304 46.7711 85.1669 47.8981 86.9447 49.7393C87.8653 50.7235 89.2304 52.5171 89.3415 52.9457C89.3732 53.0727 85.024 55.9933 82.3891 57.6282C82.2939 57.6917 81.9129 57.279 81.4843 56.6441C80.1986 54.7711 78.8494 53.9616 76.7859 53.8187C73.7542 53.6124 71.8018 55.1997 71.8177 57.8505C71.8177 58.6282 71.9288 59.0886 72.2462 59.7235C72.9129 61.1044 74.151 61.9298 78.0399 63.6124C85.1986 66.6917 88.2621 68.7235 90.1669 71.6124C92.2939 74.8346 92.77 79.9774 91.3256 83.8028C89.7383 87.9616 85.8018 90.787 80.2621 91.7235C78.5478 92.0251 74.4843 91.9774 72.6431 91.6441C68.6272 90.9298 64.8177 88.9457 62.4685 86.3425C61.5478 85.3266 59.7542 82.6759 59.8653 82.4854C59.9129 82.4219 60.3256 82.1679 60.7859 81.8981C61.2304 81.6441 62.9129 80.6759 64.5002 79.7552L67.3732 78.0885L67.9764 78.9774C68.8177 80.2631 70.6589 82.0251 71.77 82.6124C74.9605 84.2949 79.3415 84.0568 81.5002 82.1203C82.4208 81.279 82.8018 80.406 82.8018 79.1203C82.8018 77.9616 82.6589 77.4536 82.0558 76.5806C81.278 75.4695 79.6907 74.533 75.1827 72.5806C70.024 70.3584 67.8018 68.9774 65.77 66.787C64.5954 65.5171 63.4843 63.4854 63.024 61.787C62.6431 60.3743 62.5478 56.8346 62.8494 55.406C63.9129 50.4219 67.6748 46.9457 73.1034 45.9139C74.8653 45.5806 78.9605 45.7076 80.6907 46.1362Z" fill="white"/>
</svg>
